<?xml version="1.0" standalone="no"?>
<!DOCTYPE svg PUBLIC "-//W3C//DTD SVG 20010904//EN"
 "http://www.w3.org/TR/2001/REC-SVG-20010904/DTD/svg10.dtd">
<svg version="1.0" xmlns="http://www.w3.org/2000/svg"
 width="866.000000pt" height="873.000000pt" viewBox="0 0 866.000000 873.000000"
 preserveAspectRatio="xMidYMid meet">

<g transform="translate(0.000000,873.000000) scale(0.100000,-0.100000)"
fill="#000000" stroke="none">
<path d="M0 4365 l0 -4365 4330 0 4330 0 0 4365 0 4365 -4330 0 -4330 0 0
-4365z m3908 1598 l2 -353 -665 0 -665 0 0 -420 0 -420 510 0 510 0 0 -345 0
-345 -507 -2 -508 -3 -5 -795 -5 -795 -357 -3 -358 -2 0 1913 c0 1053 3 1917
7 1920 3 4 464 6 1022 5 l1016 -3 3 -352z m1036 50 c48 -170 116 -407 151
-528 35 -121 154 -539 265 -930 112 -390 206 -719 210 -730 6 -16 9 -17 14 -5
13 36 511 1770 631 2200 43 151 82 281 88 288 7 9 98 12 392 12 210 0 384 -2
387 -5 3 -3 -21 -88 -54 -188 -32 -100 -174 -549 -314 -997 -141 -448 -294
-934 -341 -1080 -86 -266 -204 -641 -328 -1040 -36 -118 -89 -286 -116 -373
l-50 -157 -306 2 -307 3 -33 101 c-18 56 -80 261 -138 455 -59 195 -133 437
-165 539 -33 102 -138 446 -235 765 -269 883 -280 918 -382 1250 -142 464
-213 701 -213 714 0 8 107 11 379 11 l378 0 87 -307z"/>
</g>
</svg>
